<svg viewBox="0 0 44 44" fill="none" xmlns="http://www.w3.org/2000/svg">
	<path d="M26.721 15.796L26.7209 15.796C26.2915 15.6295 25.7885 15.5086 25.0107 15.473L26.721 15.796ZM26.721 15.796C27.1616 15.9668 27.5225 16.1883 27.8933 16.5589L27.8935 16.5591M26.721 15.796L27.8935 16.5591M27.8935 16.5591C28.2636 16.9287 28.4856 17.2905 28.6575 17.7313C28.823 18.1594 28.9439 18.6619 28.9805 19.4389C29.0175 20.2641 29.0274 20.5219 29.0274 22.6563C29.0274 24.7908 29.0175 25.0479 28.9805 25.8733C28.9439 26.6499 28.8229 27.1526 28.6574 27.5809C28.4855 28.0215 28.2636 28.3832 27.8935 28.7527L27.8931 28.7532M27.8935 16.5591L27.8931 28.7532M27.8931 28.7532C27.5227 29.1237 27.1612 29.3459 26.721 29.5169L26.721 29.5169M27.8931 28.7532L26.721 29.5169M26.721 29.5169C26.2929 29.6831 25.7898 29.804 25.0118 29.8396C24.1859 29.8772 23.9296 29.8865 21.7929 29.8865C19.6566 29.8865 19.3996 29.8772 18.5737 29.8396C17.796 29.804 17.2933 29.6831 16.8652 29.5169C16.4249 29.3458 16.0627 29.1235 15.6926 28.7532L15.6922 28.7528M26.721 29.5169L15.6922 28.7528M15.6922 28.7528C15.322 28.383 15.1002 28.0211 14.9288 27.5803L15.6922 28.7528ZM15.6929 16.5588L15.6927 16.5591C15.3224 16.9289 15.1003 17.2909 14.9284 17.7319L15.6929 16.5588ZM15.6929 16.5588C16.063 16.1888 16.4251 15.967 16.866 15.7959L16.8663 15.7958M15.6929 16.5588L16.8663 15.7958M16.8663 15.7958C17.294 15.6295 17.7965 15.5086 18.5744 15.473L16.8663 15.7958ZM18.5746 15.473C19.3999 15.4355 19.6574 15.4261 21.7914 15.4261L18.5746 15.473ZM21.7939 15.4261C23.9287 15.4261 24.185 15.4355 25.0105 15.473L21.7939 15.4261ZM14.9288 27.5803C14.7626 27.1529 14.6417 26.6507 14.6059 25.8733C14.5685 25.0479 14.5589 24.7914 14.5589 22.6563C14.5589 20.5214 14.5688 20.2638 14.6058 19.438L14.9288 27.5803ZM14.6058 19.4378C14.6407 18.6612 14.7617 18.1592 14.9284 17.7319L14.6058 19.4378Z" stroke="white" stroke-width="1.28977"></path>
	<path d="M18.3929 22.6575C18.3929 20.7806 19.9155 19.2582 21.7942 19.2582H21.7942C23.6728 19.2582 25.1951 20.7804 25.1951 22.6575C25.1951 24.5344 23.673 26.056 21.7943 26.056C19.9154 26.056 18.3929 24.5342 18.3929 22.6575Z" stroke="white" stroke-width="1.28977"></path>
	<ellipse cx="25.8582" cy="18.1868" rx="0.835694" ry="0.835258" fill="white"></ellipse>
	<ellipse cx="21.7922" cy="22" rx="21.0109" ry="21" stroke="white" stroke-width="1.03182"></ellipse>
</svg>