<svg viewBox="0 0 44 44" fill="none" xmlns="http://www.w3.org/2000/svg">
    <ellipse cx="21.675" cy="21.9844" rx="21.0109" ry="21" stroke="white" stroke-width="1.03182"></ellipse>
    <path d="M17.6131 28.793H13.8975V18.3116H17.6131V28.793ZM15.6898 16.3905C14.5543 16.3905 13.7959 15.6209 13.7959 14.5937C13.7959 13.5665 14.5529 12.7969 15.815 12.7969C16.9504 12.7969 17.7088 13.5665 17.7088 14.5937C17.7088 15.6209 16.9519 16.3905 15.6898 16.3905ZM30.8673 28.793H27.271V23.0641C27.271 21.48 26.3123 21.1146 25.9529 21.1146C25.5936 21.1146 24.3948 21.3587 24.3948 23.0641C24.3948 23.3082 24.3948 28.793 24.3948 28.793H20.6792V18.3116H24.3948V19.7745C24.8734 18.921 25.8322 18.3116 27.6303 18.3116C29.4285 18.3116 30.8673 19.7745 30.8673 23.0641V28.793Z" fill="white"></path>
</svg>