<svg id="Layer_1" data-name="Layer 1" xmlns="http://www.w3.org/2000/svg" viewBox="0 0 37 37">
    <defs>
        <style nonce="">
            .cls-1 {
                fill: #fff;
            }

            .cls-2 {
                fill: none;
                stroke: #fff;
                stroke-width: 1.03px;
            }
        </style>
    </defs>
    <ellipse class="cls-2" cx="18.58" cy="18.39" rx="17.58" ry="17.57"></ellipse>
    <path class="cls-1" d="M21.91,10.07c0,1.45.74,2.91,2.08,3.54.58.27,1.21.39,1.85.42v2.93c-1.38-.12-2.85-.42-3.93-1.34v5.84c-.05,5.28-7.07,7.29-9.84,2.71-2.21-3.66.67-8.35,4.92-8.03.09,0,.26.02.32.08v2.97c-1.93-.55-3.66,1.34-2.83,3.21.74,1.66,3.06,1.84,4.07.33.18-.27.4-.83.4-1.15v-11.51h2.96Z"></path>
</svg>