<svg id="Layer_1" data-name="Layer 1" xmlns="http://www.w3.org/2000/svg" viewBox="0 0 37 37">
  <defs>
    <style nonce="">
      .cls-1-24796943 {
        fill: #fff;
      }

      .cls-2-24796943 {
        fill: none;
        stroke: #fff;
        stroke-width: 1.03px;
      }
    </style>
  </defs>
  <ellipse class="cls-2-24796943" cx="18.5" cy="18.5" rx="17.58" ry="17.57"></ellipse>
  <path class="cls-1-24796943" d="M25.33,14.16c.55.58.66,2.25.7,3.04.05,1.23.08,3.96-.35,5.06-.63,1.61-3.27,1.34-4.69,1.39-2.05.07-4.19.13-6.25,0-1.77-.11-3.32-.13-3.63-2.23-.22-1.56-.23-4.22,0-5.79.31-2.2,1.89-2.17,3.74-2.28,1.96-.11,3.95-.06,5.91,0,1.25.04,3.68-.14,4.57.81ZM17.07,16.22v4.56l3.72-2.22-.04-.15-3.68-2.19Z"></path>
</svg>